<?xml version="1.0" encoding="UTF-8"?>
<svg version="1.1" xmlns="http://www.w3.org/2000/svg" width="512" height="512">
<path d="M0 0 C168.96 0 337.92 0 512 0 C512 168.96 512 337.92 512 512 C343.04 512 174.08 512 0 512 C0 343.04 0 174.08 0 0 Z " fill="#F37943" transform="translate(0,0)"/>
<path d="M0 0 C134.97 0 269.94 0 409 0 C409 33.32233583 396.38530024 67.14796034 372.95703125 91.1875 C368.61899791 95.44208242 363.65150193 99.21845785 358.17504883 101.89038086 C356.0252055 103.09031244 354.57878833 104.0998796 353 106 C352.08891652 109.85821748 352.20212114 113.61584267 352.3125 117.5625 C352.34699953 119.62608313 352.3646085 121.69003518 352.36328125 123.75390625 C352.39869019 125.12011108 352.39869019 125.12011108 352.43481445 126.51391602 C351.85170368 129.84789522 350.58960333 130.87325794 348 133 C345.65999359 133.50024599 345.65999359 133.50024599 343.01838589 133.50057125 C341.50438785 133.51529269 341.50438785 133.51529269 339.959804 133.53031152 C338.29946092 133.51590402 338.29946092 133.51590402 336.60557556 133.50120544 C335.42821148 133.50673984 334.2508474 133.51227424 333.03780562 133.51797634 C329.76877092 133.52924751 326.5003386 133.52253608 323.23133361 133.50823963 C319.70640859 133.49714739 316.18155195 133.50906655 312.65663147 133.51808167 C305.75123082 133.53202771 298.84601281 133.52444818 291.94062083 133.50940608 C283.90328412 133.49256322 275.86599312 133.49575402 267.82864422 133.49950016 C253.49111322 133.50538114 239.15366999 133.49119735 224.81616211 133.46655273 C210.89523021 133.44262677 196.97441557 133.4355499 183.0534668 133.44604492 C167.9026513 133.45744664 152.75189006 133.4593938 137.60107523 133.44494683 C135.98648203 133.44342095 134.37188882 133.44190059 132.75729561 133.44038582 C131.5656031 133.4392491 131.5656031 133.4392491 130.349836 133.43808941 C124.74366746 133.43334115 119.13752309 133.43520182 113.5313549 133.43945122 C106.70270827 133.44437091 99.87417264 133.43842469 93.04555147 133.41855692 C89.55961496 133.40866548 86.0738477 133.40359961 82.58790207 133.41144943 C78.81423155 133.41736706 75.04106571 133.4049644 71.2674408 133.38768005 C69.60375164 133.39669512 69.60375164 133.39669512 67.9064526 133.40589231 C66.89972832 133.39745237 65.89300404 133.38901243 64.85577297 133.38031673 C63.98420478 133.3792876 63.11263659 133.37825848 62.21465725 133.37719816 C59.51541809 132.9174665 58.62679482 132.16827717 57 130 C56.63110352 127.61157227 56.63110352 127.61157227 56.62890625 124.81640625 C56.61150391 123.80642578 56.59410156 122.79644531 56.57617188 121.75585938 C56.56707407 119.63087247 56.56185136 117.50586536 56.56054688 115.38085938 C56.54185547 114.36958984 56.52316406 113.35832031 56.50390625 112.31640625 C56.50112671 110.93110718 56.50112671 110.93110718 56.49829102 109.51782227 C55.85164336 106.25036645 54.52509849 105.10109394 52 103 C50.35666496 101.96210419 48.68756133 100.96432076 47 100 C22.01220987 84.32856305 9.04926195 54.63028755 1.97265625 27.109375 C-0.17755741 17.63654429 0 10.09119255 0 0 Z " fill="#0A190D" transform="translate(50,226)"/>
<path d="M0 0 C7.92 0 15.84 0 24 0 C25.98 10.89 27.96 21.78 30 33 C31.94057475 25.237701 33.74435091 17.5979639 35.1875 9.75 C35.785625 6.5325 36.38375 3.315 37 0 C44.26 0 51.52 0 59 0 C59 22.11 59 44.22 59 67 C54.38 67 49.76 67 45 67 C44.505 46.21 44.505 46.21 44 25 C42.700625 30.81625 41.40125 36.6325 40.0625 42.625 C39.65394775 44.4498291 39.24539551 46.2746582 38.82446289 48.15478516 C38.49873353 49.6161826 38.17312343 51.07760664 37.84765625 52.5390625 C37.68003784 53.28567139 37.51241943 54.03228027 37.33972168 54.80151367 C37.09627014 55.89677368 37.09627014 55.89677368 36.84790039 57.01416016 C36.70800186 57.64037262 36.56810333 58.26658508 36.42396545 58.91177368 C35.8792847 61.59457877 35.45004865 64.29970807 35 67 C30.71 67 26.42 67 22 67 C21.82871582 66.11328613 21.65743164 65.22657227 21.48095703 64.31298828 C20.83635966 60.97683779 20.19146812 57.64074442 19.54638672 54.3046875 C19.26892776 52.86948841 18.99158109 51.43426761 18.71435547 49.99902344 C18.31248082 47.91856045 17.91018243 45.83817975 17.5078125 43.7578125 C17.26691895 42.5114502 17.02602539 41.26508789 16.77783203 39.98095703 C15.8666908 35.31772133 14.93182917 30.65914584 14 26 C13.67 39.53 13.34 53.06 13 67 C8.71 67 4.42 67 0 67 C0 44.89 0 22.78 0 0 Z " fill="#101B0E" transform="translate(151,139)"/>
<path d="M0 0 C7.59 0 15.18 0 23 0 C26.09003663 11.61427559 28.2937076 23.107659 30 35 C30.26478149 33.56950317 30.26478149 33.56950317 30.53491211 32.11010742 C31.19064035 28.57064368 31.84916971 25.03170591 32.50854492 21.49291992 C32.79348918 19.96148646 33.07767446 18.42991158 33.36108398 16.89819336 C33.7686722 14.6960749 34.17899064 12.4944801 34.58984375 10.29296875 C34.77896584 9.26625313 34.77896584 9.26625313 34.97190857 8.21879578 C35.50138969 5.39411915 36.08960396 2.73118811 37 0 C44.26 0 51.52 0 59 0 C59 22.11 59 44.22 59 67 C54.38 67 49.76 67 45 67 C44.67 52.48 44.34 37.96 44 23 C41.0790059 37.10547148 41.0790059 37.10547148 38.16625977 51.21264648 C37.79994227 52.97385807 37.43334395 54.73501128 37.06640625 56.49609375 C36.78259094 57.8810907 36.78259094 57.8810907 36.49304199 59.29406738 C36.21913635 60.60341248 36.21913635 60.60341248 35.93969727 61.93920898 C35.78203384 62.70087875 35.62437042 63.46254852 35.46192932 64.24729919 C35 66 35 66 34 67 C30.04 67 26.08 67 22 67 C19.03 52.15 16.06 37.3 13 22 C12.67 36.85 12.34 51.7 12 67 C8.04 67 4.08 67 0 67 C0 44.89 0 22.78 0 0 Z " fill="#0D1A0D" transform="translate(260,139)"/>
<path d="M0 0 C6.19920936 3.74291886 9.10749802 9.65066336 11.4375 16.3125 C14.55563507 30.13011813 14.0898176 47.12910965 6.5625 59.3125 C3.2410947 63.91642814 -0.02231523 66.14562923 -5.5625 67.3125 C-12.92736058 68.15450287 -18.6560521 67.90402501 -24.65625 63.2734375 C-33.48913295 54.18715218 -33.91993177 41.36033305 -33.86303711 29.42871094 C-33.63555876 19.10139781 -32.1740458 9.8336474 -24.5625 2.3125 C-17.72477771 -3.26931411 -8.01301827 -3.67638479 0 0 Z " fill="#0F1B0E" transform="translate(131.5625,139.6875)"/>
<path d="M0 0 C26 0 26 0 35 4 C42.6824151 12.4996933 42.31880338 22.03732852 42.25 33 C42.26160156 34.84851563 42.26160156 34.84851563 42.2734375 36.734375 C42.25368818 45.93755622 41.94346031 53.52822133 36 61 C25.86317846 70.60330462 14.04044036 67 0 67 C0 44.89 0 22.78 0 0 Z " fill="#101B0E" transform="translate(376,139)"/>
<path d="M0 0 C5.28 0 10.56 0 16 0 C16 8.58 16 17.16 16 26 C19.3 26 22.6 26 26 26 C26 17.42 26 8.84 26 0 C31.28 0 36.56 0 42 0 C42 22.11 42 44.22 42 67 C36.72 67 31.44 67 26 67 C26 58.09 26 49.18 26 40 C22.7 40 19.4 40 16 40 C16 48.91 16 57.82 16 67 C10.72 67 5.44 67 0 67 C0 44.89 0 22.78 0 0 Z " fill="#151D0F" transform="translate(49,139)"/>
<path d="M0 0 C0.74886475 0.00523682 1.49772949 0.01047363 2.26928711 0.01586914 C3.07817383 0.0190918 3.88706055 0.02231445 4.72045898 0.02563477 C5.5705957 0.03401367 6.42073242 0.04239258 7.29663086 0.05102539 C8.15063477 0.05553711 9.00463867 0.06004883 9.88452148 0.06469727 C12.00108749 0.07652166 14.11761771 0.0944577 16.23413086 0.11352539 C19.18807716 10.99099822 21.45535288 21.97293089 23.62194824 33.03027344 C25.39981428 42.0986814 27.31592327 51.09723668 29.57006836 60.05883789 C30.23413086 63.11352539 30.23413086 63.11352539 30.23413086 67.11352539 C24.95413086 67.11352539 19.67413086 67.11352539 14.23413086 67.11352539 C13.90413086 63.15352539 13.57413086 59.19352539 13.23413086 55.11352539 C8.61413086 55.11352539 3.99413086 55.11352539 -0.76586914 55.11352539 C-1.42586914 59.07352539 -2.08586914 63.03352539 -2.76586914 67.11352539 C-7.05586914 67.11352539 -11.34586914 67.11352539 -15.76586914 67.11352539 C-15.16614762 59.47236766 -13.81784638 52.25844825 -12.07836914 44.80102539 C-10.3399532 37.19338865 -8.63276192 29.58350833 -7.07055664 21.93774414 C-6.93403183 21.26992416 -6.79750702 20.60210419 -6.65684509 19.91404724 C-5.99312952 16.6583469 -5.33576949 13.40149627 -4.68310547 10.14355469 C-4.44615967 8.97606689 -4.20921387 7.8085791 -3.96508789 6.60571289 C-3.757146 5.56785645 -3.5492041 4.53 -3.33496094 3.46069336 C-2.53540527 0.16299785 -2.53540527 0.16299785 0 0 Z " fill="#0F1B0E" transform="translate(340.765869140625,138.886474609375)"/>
<path d="M0 0 C10.56 0 21.12 0 32 0 C32 3.96 32 7.92 32 12 C26.39 12 20.78 12 15 12 C15 16.95 15 21.9 15 27 C19.62 27 24.24 27 29 27 C29 30.96 29 34.92 29 39 C24.38 39 19.76 39 15 39 C15 44.28 15 49.56 15 55 C20.94 55 26.88 55 33 55 C33 58.96 33 62.92 33 67 C22.11 67 11.22 67 0 67 C0 44.89 0 22.78 0 0 Z " fill="#0E1A0D" transform="translate(426,139)"/>
<path d="M0 0 C10.56 0 21.12 0 32 0 C32 3.96 32 7.92 32 12 C26.39 12 20.78 12 15 12 C15 16.95 15 21.9 15 27 C19.62 27 24.24 27 29 27 C29 30.96 29 34.92 29 39 C24.38 39 19.76 39 15 39 C15 44.28 15 49.56 15 55 C20.94 55 26.88 55 33 55 C33 58.96 33 62.92 33 67 C22.11 67 11.22 67 0 67 C0 44.89 0 22.78 0 0 Z " fill="#0E1A0E" transform="translate(220,139)"/>
<path d="M0 0 C2.3125 0.1875 2.3125 0.1875 5 1 C8.15328827 5.02243385 8.38511757 8.25351062 8.3984375 13.27734375 C8.40274277 14.31079674 8.40274277 14.31079674 8.40713501 15.36512756 C8.40916863 16.81658758 8.40368795 18.26807545 8.39111328 19.71948242 C8.37507227 21.92755188 8.39097111 24.13378447 8.41015625 26.34179688 C8.40817321 27.7578165 8.40432828 29.17383499 8.3984375 30.58984375 C8.39505371 31.86722412 8.39166992 33.14460449 8.38818359 34.46069336 C7.96694192 38.30141072 7.04430593 40.73773808 5 44 C2.5 45.0625 2.5 45.0625 0 45 C-1.98707246 43.6516294 -2.78876392 42.61832564 -3.56323242 40.35131836 C-4.1678757 37.0962488 -4.20272161 33.86632607 -4.23828125 30.56640625 C-4.246353 29.85145493 -4.25442474 29.1365036 -4.26274109 28.39988708 C-4.27653631 26.89120884 -4.28727875 25.38249999 -4.29516602 23.8737793 C-4.30670928 22.33462346 -4.3271983 20.79550837 -4.35668945 19.2565918 C-4.39940159 17.02625487 -4.41553582 14.79710152 -4.42578125 12.56640625 C-4.44328934 11.88292618 -4.46079742 11.19944611 -4.47883606 10.49525452 C-4.45728818 5.72694253 -3.3033158 3.39322419 0 0 Z " fill="#EE7742" transform="translate(119,150)"/>
<path d="M0 0 C2.31 0.33 4.62 0.66 7 1 C11.00554484 7.00831726 10.18329798 13.89125047 10.1875 20.875 C10.19974609 21.93847656 10.21199219 23.00195312 10.22460938 24.09765625 C10.24805742 36.68143905 10.24805742 36.68143905 6.6875 41.9375 C5 43 5 43 0 43 C0 28.81 0 14.62 0 0 Z " fill="#EB7642" transform="translate(392,151)"/>
<path d="M0 0 C0.33 0 0.66 0 1 0 C1.50579714 3.04080421 2.00480759 6.08246646 2.5 9.125 C2.64308594 9.9809375 2.78617187 10.836875 2.93359375 11.71875 C3.65695734 16.19671505 4.17918816 20.44563435 4 25 C1.36 25 -1.28 25 -4 25 C-2.53515625 13.28125 -2.53515625 13.28125 -2.26611328 11.15625 C-2.08369458 9.67815643 -1.91066309 8.19888282 -1.74560547 6.71875 C-1.10532407 1.10532407 -1.10532407 1.10532407 0 0 Z " fill="#DB6F3E" transform="translate(347,156)"/>
<path d="M0 0 C0.33 0 0.66 0 1 0 C1 15.84 1 31.68 1 48 C0.67 48 0.34 48 0 48 C-0.33 36.78 -0.66 25.56 -1 14 C-1.66 14.99 -2.32 15.98 -3 17 C-2.25339288 11.27601207 -1.17122859 5.65146223 0 0 Z " fill="#D26C3C" transform="translate(304,158)"/>
<path d="M0 0 C1.99796955 2.99695432 2.34510261 4.17857384 2.6875 7.625 C2.77386719 8.42164063 2.86023438 9.21828125 2.94921875 10.0390625 C2.97435547 11.00972656 2.97435547 11.00972656 3 12 C2.67 12.33 2.34 12.66 2 13 C1.84003834 15.59153107 1.74061303 18.1595202 1.68359375 20.75390625 C1.66281265 21.52935287 1.64203156 22.3047995 1.62062073 23.10374451 C1.55504198 25.58990308 1.49620201 28.07617045 1.4375 30.5625 C1.39432267 32.24415204 1.35070864 33.92579294 1.30664062 35.60742188 C1.19935221 39.73816871 1.09810868 43.86902536 1 48 C0.67 48 0.34 48 0 48 C0 32.16 0 16.32 0 0 Z " fill="#C66638" transform="translate(272,158)"/>
<path d="M0 0 C0.33 0 0.66 0 1 0 C1 15.18 1 30.36 1 46 C0.67 46 0.34 46 0 46 C-0.33 35.44 -0.66 24.88 -1 14 C-1.66 14.99 -2.32 15.98 -3 17 C-2.25339288 11.27601207 -1.17122859 5.65146223 0 0 Z " fill="#E0713E" transform="translate(195,159)"/>
</svg>
